<svg viewBox="0 0 67 45" fill="none" xmlns="http://www.w3.org/2000/svg">
  <g clip-path="url(#clip0_4260_1342)">
    <path fill-rule="evenodd" clip-rule="evenodd"
      d="M5.74876 0.174283C5.21647 0.373566 4.40667 1.17334 4.21648 1.68802C4.09566 2.01447 4.0727 4.72342 4.04997 21.4639L4.02366 40.8614L2.03922 40.8874L0.0550234 40.9134L0.0275113 41.6365L0 42.3596L1.67271 43.6798L3.34567 45H33.499H63.6527L65.3263 43.6884L67 42.3769L66.9722 41.6451L66.9445 40.9134L64.9601 40.8874L62.9756 40.8614L62.9505 21.4158C62.9223 -0.384379 62.9974 1.68826 62.206 0.825739C61.3634 -0.0927898 64.5505 -0.00192153 33.4722 0.00601133C8.18128 0.0127422 6.1478 0.0250014 5.74876 0.174283ZM60.7421 2.22745L60.9637 2.43635V21.6509V40.8653H50.2915H39.6193L39.5196 41.1292C39.3366 41.6129 38.9342 42.0374 38.4392 42.2689L37.9495 42.498L33.5206 42.499C28.746 42.4999 28.7787 42.5031 28.0979 41.9812C27.9369 41.8579 27.7053 41.5562 27.5835 41.311L27.362 40.8653H16.6989H6.03584V21.6952V2.52505L6.23417 2.27168L6.43249 2.01831H33.4766H60.5206L60.7421 2.22745ZM35.0978 6.99438C35.0134 7.1927 34.8294 7.65786 34.6892 8.02806C34.3462 8.93264 34.0584 9.68602 33.2557 11.7781C33.134 12.0954 32.8778 12.7661 32.6864 13.2686C32.495 13.771 32.2302 14.4633 32.0979 14.807C31.7397 15.7376 31.4077 16.6064 31.1419 17.3071C31.0115 17.6509 30.8211 18.1348 30.7189 18.3826C30.4524 19.029 30.4584 19.0379 31.1519 19.0379C31.845 19.0379 31.84 19.0422 32.162 18.1391C32.2591 17.8665 32.4737 17.2975 32.6385 16.8744C32.8034 16.4513 33.0187 15.8888 33.117 15.6244C33.2153 15.3599 33.4306 14.7974 33.5955 14.3743C33.7603 13.9513 33.9756 13.3887 34.0739 13.1243C34.1722 12.8599 34.3876 12.2974 34.5524 11.8743C34.7172 11.4512 34.9325 10.8887 35.0308 10.6243C35.1292 10.3598 35.3445 9.79732 35.5093 9.37424C35.6741 8.95115 35.8895 8.38864 35.9875 8.12421C36.0854 7.85978 36.2548 7.41627 36.3634 7.13862L36.5612 6.6338H35.9062H35.2512L35.0978 6.99438ZM28.795 9.59997C28.4089 9.80334 26.995 10.536 25.6529 11.2284C24.3108 11.9207 22.8575 12.6724 22.4233 12.8986L21.6338 13.3101V13.8046V14.2989L22.519 14.758C23.0058 15.0104 24.007 15.5306 24.7438 15.914C27.6182 17.4095 29.4835 18.3648 29.529 18.3648C29.555 18.3648 29.5763 18.0684 29.5763 17.7061V17.0475L26.451 15.4705C24.7319 14.6032 23.329 13.8503 23.3333 13.7974C23.3376 13.7445 24.7441 12.9926 26.4587 12.1265L29.5763 10.5517V9.89084C29.5763 9.52737 29.5584 9.23001 29.5366 9.23001C29.5149 9.23001 29.1811 9.39636 28.795 9.59997ZM37.4232 9.88916V10.5485L40.6337 12.1503C42.3995 13.0313 43.8241 13.7837 43.7992 13.8227C43.7746 13.8616 42.3298 14.607 40.5887 15.4789L37.4232 17.0643V17.7146C37.4232 18.0723 37.4476 18.3648 37.4772 18.3648C37.5246 18.3648 39.7583 17.2232 44.026 15.0179L45.3179 14.3503V13.802V13.2536L43.4518 12.2933C42.4255 11.7649 40.6693 10.8596 39.549 10.2815C38.4287 9.70309 37.4921 9.23001 37.4677 9.23001C37.4433 9.23001 37.4232 9.52665 37.4232 9.88916ZM22.7821 23.413V24.038H26.2271H29.672V23.413V22.788H26.2271H22.7821V23.413ZM32.8299 23.413V24.038H34.0739H35.3179V23.413V22.788H34.0739H32.8299V23.413ZM38.4758 23.413V24.038H39.672H40.8681V23.413V22.788H39.672H38.4758V23.413ZM22.8223 25.1294C22.7941 25.2029 22.7845 25.4957 22.8006 25.7804L22.83 26.2977L25.1548 26.3234L27.4799 26.3491L27.4515 25.6984L27.4232 25.0477L25.1481 25.0219C23.279 25.0008 22.8639 25.0198 22.8223 25.1294ZM29.5462 25.0621C29.5101 25.0981 29.4806 25.4027 29.4806 25.7385V26.3491L31.8012 26.3234L34.1218 26.2977V25.6727V25.0477L31.8668 25.0219C30.6263 25.0077 29.5821 25.0258 29.5462 25.0621ZM35.1265 25.6727V26.3458H37.4232H39.7198V25.6727V24.9996H37.4232H35.1265V25.6727ZM41.8251 25.6727V26.3458H44.1217H46.4183V25.6727V24.9996H44.1217H41.8251V25.6727ZM24.1218 28.1246V28.7497H26.2749H28.428V28.1246V27.4996H26.2749H24.1218V28.1246ZM22.7821 30.1439V30.7689H25.1266H27.4711V30.1439V29.5189H25.1266H22.7821V30.1439ZM30.629 30.1439V30.7689H32.3993H34.1696V30.1439V29.5189H32.3993H30.629V30.1439ZM22.8218 31.8613C22.7941 31.9341 22.7845 32.2266 22.8006 32.5113L22.83 33.0286H28.4759H34.1218V32.4036V31.7786L28.4972 31.7538C23.7919 31.7329 22.8642 31.7507 22.8218 31.8613ZM37.3275 32.4036V33.0767H39.6241H41.9208V32.4036V31.7305H39.6241H37.3275V32.4036ZM21.7295 34.6159V35.2895L28.4998 35.2649L35.2701 35.2402L35.3002 34.8152C35.317 34.5815 35.3053 34.2894 35.2746 34.1661L35.2186 33.9421H28.474H21.7295V34.6159ZM39.548 34.5894L39.5763 35.2402H41.8729H44.1695V34.6152V33.9901L41.8447 33.9644L39.5196 33.9387L39.548 34.5894Z"
      fill="#090909" />
    <path fill-rule="evenodd" clip-rule="evenodd"
      d="M19.4692 2.0247C26.9021 2.03837 39.0652 2.03837 46.4981 2.0247C53.9311 2.01103 47.8496 2 32.9837 2C18.1177 2 12.0362 2.01103 19.4692 2.0247ZM35.3418 6.53038C35.7135 6.55052 36.0503 6.61814 36.0958 6.68169C36.1539 6.76275 36.1667 6.75435 36.139 6.65291C36.1091 6.54236 35.9344 6.50735 35.3849 6.5016L34.67 6.49392L35.3418 6.53038ZM39.6325 11.8756C39.6325 11.902 39.7626 11.9907 39.9216 12.0725C40.0806 12.1543 40.2106 12.1998 40.2106 12.1734C40.2106 12.1471 40.0806 12.0583 39.9216 11.9766C39.7626 11.8948 39.6325 11.8492 39.6325 11.8756ZM40.5961 12.3552C40.5961 12.3816 40.7262 12.4703 40.8852 12.5521C41.0442 12.6339 41.1742 12.6794 41.1742 12.653C41.1742 12.6267 41.0442 12.5379 40.8852 12.4562C40.7262 12.3744 40.5961 12.3288 40.5961 12.3552ZM41.5597 12.8348C41.5597 12.8612 41.6898 12.9499 41.8488 13.0317C42.0078 13.1135 42.1378 13.159 42.1378 13.1327C42.1378 13.1063 42.0078 13.0175 41.8488 12.9358C41.6898 12.854 41.5597 12.8084 41.5597 12.8348ZM21.0415 13.1199C20.9743 13.2005 20.9425 13.4643 20.9637 13.7674L20.9994 14.2787L21.0172 13.7463C21.0271 13.4535 21.0871 13.1621 21.1507 13.0988C21.2143 13.0355 21.2412 12.9837 21.2107 12.9837C21.1801 12.9837 21.1039 13.0449 21.0415 13.1199ZM44.9621 13.7031C44.9626 14.0197 44.9807 14.1377 45.0021 13.9653C45.0236 13.7928 45.0231 13.5338 45.0012 13.3897C44.9793 13.2456 44.9617 13.3866 44.9621 13.7031ZM22.8659 15.2329C22.8659 15.2592 22.996 15.348 23.155 15.4297C23.3139 15.5115 23.444 15.5571 23.444 15.5307C23.444 15.5043 23.3139 15.4156 23.155 15.3338C22.996 15.252 22.8659 15.2065 22.8659 15.2329ZM22.1094 23.2176C22.1015 23.597 22.1275 23.9274 22.1673 23.9521C22.207 23.9766 22.2272 23.7742 22.2121 23.502C22.1629 22.62 22.1241 22.5128 22.1094 23.2176ZM32.2458 23.2953C32.2463 23.7174 32.2631 23.878 32.2834 23.6524C32.3038 23.427 32.3036 23.0816 32.2829 22.885C32.2622 22.6886 32.2455 22.8732 32.2458 23.2953ZM40.387 23.2955C40.3694 23.6912 40.3877 24.015 40.4275 24.015C40.4672 24.0147 40.4997 23.691 40.4997 23.2953C40.4997 22.3661 40.4279 22.3661 40.387 23.2955ZM22.1352 24.9121C22.1075 24.9835 22.0986 25.318 22.1155 25.6555L22.1458 26.2689L22.1926 25.5252C22.2395 24.7811 22.2289 24.6687 22.1352 24.9121ZM26.8923 25.2857C26.9419 26.1926 26.9802 26.2821 26.9949 25.5255C27.0028 25.1166 26.9768 24.7821 26.9371 24.7821C26.8973 24.7821 26.8771 25.0087 26.8923 25.2857ZM28.8804 24.9121C28.8527 24.9835 28.8438 25.318 28.8607 25.6555L28.891 26.2689L28.9377 25.5252C28.9847 24.7811 28.9741 24.6687 28.8804 24.9121ZM33.6375 25.2857C33.6871 26.1926 33.7254 26.2821 33.7401 25.5255C33.748 25.1166 33.722 24.7821 33.6823 24.7821C33.6425 24.7821 33.6223 25.0087 33.6375 25.2857ZM39.28 25.5015C39.2805 25.9236 39.2974 26.0842 39.3176 25.8586C39.3381 25.6331 39.3379 25.2878 39.3171 25.0912C39.2964 24.8948 39.2798 25.0794 39.28 25.5015ZM46.0245 25.5495C46.0245 25.9451 46.0416 26.107 46.0623 25.9092C46.0833 25.7113 46.0833 25.3876 46.0623 25.1898C46.0416 24.9919 46.0245 25.1538 46.0245 25.5495ZM22.1094 29.9321C22.1015 30.3115 22.1275 30.6419 22.1673 30.6666C22.207 30.6911 22.2272 30.4887 22.2121 30.2165C22.1629 29.3345 22.1241 29.2273 22.1094 29.9321ZM26.8966 30.01C26.879 30.4057 26.8973 30.7295 26.9371 30.7295C26.9768 30.7292 27.0093 30.4055 27.0093 30.0098C27.0093 29.0806 26.9376 29.0806 26.8966 30.01ZM33.6418 30.01C33.6242 30.4057 33.6425 30.7295 33.6823 30.7295C33.722 30.7292 33.7545 30.4055 33.7545 30.0098C33.7545 29.0806 33.6827 29.0806 33.6418 30.01ZM22.1352 31.6266C22.1075 31.698 22.0986 32.0326 22.1155 32.37L22.1458 32.9834L22.1926 32.2397C22.2395 31.4956 22.2289 31.3832 22.1352 31.6266ZM33.6375 32.0002C33.6871 32.9071 33.7254 32.9966 33.7401 32.24C33.748 31.8311 33.722 31.4966 33.6823 31.4966C33.6425 31.4966 33.6223 31.7232 33.6375 32.0002ZM24.5351 33.7747C26.4338 33.7894 29.5125 33.7894 31.3766 33.7747C33.2409 33.7601 31.6876 33.7481 27.9248 33.7484C24.1619 33.7484 22.6365 33.7601 24.5351 33.7747ZM39.0223 33.7668C38.9336 33.8548 38.9409 35.1198 39.0302 35.1752C39.07 35.1996 39.0883 34.9009 39.0709 34.5109L39.0391 33.8021L41.3836 33.7747L43.7278 33.7472L41.4072 33.7251C40.1307 33.7129 39.0575 33.7316 39.0223 33.7668ZM43.775 34.4898C43.749 34.8963 43.7625 35.1941 43.8049 35.1517C43.847 35.1092 43.8685 34.7769 43.8521 34.4126L43.8222 33.7507L43.775 34.4898ZM0.2507 40.6808C0.823319 40.6979 1.73392 40.6976 2.27426 40.6806C2.8146 40.6636 2.34604 40.6497 1.23309 40.6497C0.120132 40.6499 -0.321918 40.6638 0.2507 40.6808ZM9.23096 40.6799C19.3738 40.7456 26.9867 40.7461 26.9462 40.6811C26.9217 40.6415 22.0584 40.6195 16.139 40.6319C10.2196 40.6446 7.11104 40.6662 9.23096 40.6799ZM39.0223 40.6732C38.9869 40.7082 38.9587 40.7837 38.9594 40.841C38.9604 40.9029 38.9917 40.8967 39.0372 40.8254C39.097 40.7314 41.4082 40.7005 49.8522 40.6811L60.5908 40.6561L49.8387 40.6326C43.9248 40.6197 39.0575 40.6379 39.0223 40.6732ZM63.7518 40.6808C64.3244 40.6979 65.2351 40.6976 65.7754 40.6806C66.3157 40.6636 65.8472 40.6497 64.7342 40.6497C63.6213 40.6499 63.1792 40.6638 63.7518 40.6808ZM27.2021 41.4065C27.2021 41.423 27.343 41.5633 27.5152 41.7182L27.8284 42L27.5453 41.6883C27.2816 41.3976 27.2021 41.3324 27.2021 41.4065ZM38.422 41.6883L38.1389 42L38.4521 41.7182C38.6243 41.5633 38.7652 41.423 38.7652 41.4065C38.7652 41.3324 38.6858 41.3976 38.422 41.6883Z"
      fill="#A4A4A4" />
    <path fill-rule="evenodd" clip-rule="evenodd"
      d="M62.9643 21.5305C62.9643 31.8028 62.9758 36.0051 62.9896 30.8689C63.0035 25.7328 63.0035 17.3282 62.9896 12.1921C62.9758 7.05593 62.9643 11.2582 62.9643 21.5305ZM3 21.6709C3 31.9174 3.01142 36.123 3.02527 31.0168C3.03912 25.9104 3.03912 17.5269 3.02527 12.3868C3.01142 7.24645 3 11.4244 3 21.6709ZM29.0945 23.3752C29.0685 23.7462 29.0821 24.0158 29.1251 23.9742C29.1678 23.9327 29.1892 23.6292 29.1724 23.2996L29.1421 22.7007L29.0945 23.3752ZM23.3429 24.8771C24.0009 24.8933 25.0505 24.8933 25.6754 24.8771C26.3003 24.8607 25.7622 24.8474 24.4793 24.8476C23.1964 24.8476 22.685 24.861 23.3429 24.8771ZM30.146 24.8771C30.804 24.8933 31.8536 24.8933 32.4785 24.8771C33.1034 24.8607 32.5652 24.8474 31.2824 24.8476C29.9995 24.8476 29.4881 24.861 30.146 24.8771ZM35.7773 24.8771C36.4321 24.8933 37.5036 24.8933 38.1584 24.8771C38.8131 24.861 38.2774 24.8476 36.9678 24.8476C35.6582 24.8476 35.1225 24.861 35.7773 24.8771ZM42.5804 24.8771C43.2352 24.8933 44.3066 24.8933 44.9614 24.8771C45.6162 24.861 45.0805 24.8476 43.7709 24.8476C42.4613 24.8476 41.9256 24.861 42.5804 24.8771ZM24.5578 28.6218C25.1888 28.6382 26.1946 28.638 26.7931 28.6216C27.3912 28.6052 26.8749 28.5919 25.6455 28.5921C24.4161 28.5921 23.9265 28.6055 24.5578 28.6218ZM30.0124 29.9561L30.0189 30.5647L31.8169 30.5679L33.6149 30.5714L31.8456 30.5424L30.0763 30.5136L30.0411 29.9306L30.0056 29.3476L30.0124 29.9561ZM23.3429 30.5878C24.0009 30.604 25.0505 30.604 25.6754 30.5878C26.3003 30.5714 25.7622 30.5581 24.4793 30.5583C23.1964 30.5583 22.685 30.5717 23.3429 30.5878ZM25.0452 31.4306C26.639 31.4451 29.2193 31.4449 30.7792 31.4306C32.3388 31.4161 31.0345 31.4042 27.8808 31.4044C24.7271 31.4044 23.451 31.4161 25.0452 31.4306ZM36.814 31.4873C36.7861 31.557 36.779 31.8835 36.7982 32.2128L36.8332 32.8115L36.8519 32.1344L36.8706 31.4573L39.2274 31.4306L41.5842 31.4037L39.2242 31.3822C37.3128 31.3646 36.8548 31.3845 36.814 31.4873ZM24.462 34.9881C26.3771 35.0024 29.4822 35.0024 31.3623 34.9881C33.2426 34.9738 31.676 34.9621 27.8808 34.9624C24.0857 34.9624 22.5472 34.9738 24.462 34.9881ZM40.3506 34.9879C41.0086 35.004 42.0582 35.004 42.6831 34.9879C43.308 34.9715 42.7699 34.9582 41.487 34.9584C40.2041 34.9584 39.6927 34.9717 40.3506 34.9879Z"
      fill="#7C7C7C" />
  </g>
  <defs>
    <clipPath id="clip0_4260_1342">
      <rect width="67" height="45" fill="white" />
    </clipPath>
  </defs>
</svg>
